<?xml version="1.0" encoding="UTF-8" standalone="no"?>
<svg
   version="1.1"
   viewBox="0.00 0.00 1254.00 1254.00"
   id="svg27"
   inkscape:version="1.3.2 (091e20e, 2023-11-25)"
   sodipodi:docname="mad-header-icon-v2.svg"
   inkscape:export-filename="mad-header-icon-v2.png"
   inkscape:export-xdpi="96"
   inkscape:export-ydpi="96"
   xmlns:inkscape="http://www.inkscape.org/namespaces/inkscape"
   xmlns:sodipodi="http://sodipodi.sourceforge.net/DTD/sodipodi-0.dtd"
   xmlns="http://www.w3.org/2000/svg"
   xmlns:svg="http://www.w3.org/2000/svg">
  <sodipodi:namedview
     id="namedview1"
     pagecolor="#505050"
     bordercolor="#eeeeee"
     borderopacity="1"
     inkscape:showpageshadow="0"
     inkscape:pageopacity="0"
     inkscape:pagecheckerboard="0"
     inkscape:deskcolor="#505050"
     showgrid="false"
     inkscape:current-layer="svg27" />
  <defs
     id="defs27" />
  <rect
     style="fill:#321150;fill-opacity:1;stroke:#000000;stroke-width:2;stroke-linecap:round;stroke-linejoin:round;paint-order:stroke fill markers"
     id="rect1"
     width="1254"
     height="1254"
     x="0"
     y="0"
     inkscape:label="BG" />
  <g
     id="g1"
     inkscape:label="Icon"
     transform="matrix(1.1133167,0,0,1.1133167,-71.049565,13.55899)">
    <path
       fill="#ffffff"
       d="m 481.51,445.77 c -1.56,-33.28667 -5.86,-67.01333 -12.9,-101.18 -2.54,-12.30667 -4.96333,-22.43667 -7.27,-30.39 -6.54,-22.50667 -15.53,-43.75333 -26.97,-63.74 -2.16,-3.78 -3.43667,-6.43 -3.83,-7.95 -1.88,-7.28 0.4,-14.5 7.07,-18.63 3,-1.85333 5.69,-3.25333 8.07,-4.2 47.77,-18.9 99.51,-29.77 150.07,-34.35 38.12,-3.46 75.71333,-2.67 112.78,2.37 26.5,3.6 53.86,9.81 77.5,18.31 22.25,8 42.77,18.79 60.72,33.33 5.48,4.44 7.52,10.18 6.69,16.84 -0.26667,2.10667 -1.56667,5.35333 -3.9,9.74 -40.94913,76.95041 -52.98293,114.19761 -70.66453,226.75234 -0.75992,4.83738 -1.79776,9.89802 -2.58129,15.02274 C 684.39558,454.56692 563.72259,461.70542 481.51,445.77 Z"
       id="path2"
       style="fill:#ffffff;fill-opacity:1"
       sodipodi:nodetypes="cccccccccccccscc"
       inkscape:label="Top hat"
       transform="matrix(1.5905698,0,0,1.5905698,-364.97279,-194.6736)" />
    <path
       fill="#ffffff"
       d="m 511.91,703.36 a 0.21,0.21 0 0 1 -0.29,0.29 c -13.71,-7.71 -31.42,-8.42 -44.49,0.4 -11.84,7.99 -18.72,18.62 -22.88,31.9 a 0.3,0.3 0 0 1 -0.56,0.02 c -4.27,-10.94 -6.71,-23.85 -5.04,-35.5 q 1.72,-12.01 7.71,-22.71 a 0.43,0.43 0 0 0 -0.59,-0.58 c -12.79,7.37 -27.16,11.33 -42.03,10.23 q -16.92,-1.26 -31.97,-8.06 a 0.36,0.35 -37.7 0 1 0.09,-0.67 c 14.96,-2.54 26.59,-9.33 37.56,-19.79 q 6.73,-6.42 10.72,-13.61 a 0.42,0.42 0 0 0 -0.48,-0.61 c -2.96,0.82 -6.19,0.95 -10.4,1.38 -27.53,2.82 -51,-8.63 -67.92,-30.29 a 0.18,0.18 0 0 1 0.16,-0.29 q 7.31,0.6 9,0.79 c 24.78,2.88 45.49,-4.88 63.24,-20.09 a 0.59,0.58 -49.1 0 0 -0.06,-0.94 q -22.7,-14.39 -39.69,-34.96 c -11.46,-13.88 -22.59,-33.54 -20.64,-51.75 2.13,-19.94 18.44,-28.11 36.66,-28.64 11.76,-0.35 24.93,2.23 36.82,6.24 27.25,9.19 47.31,20.47 77.08,36.18 q 29.73,15.69 61.46,26.84 26.44,9.29 53.88,13.23 46.93,6.73 93.96,-0.72 29.26,-4.63 55.81,-16.39 16.18,-7.17 28.11,-13.37 6.31,-3.28 16.52,-7.43 c 20.67,-8.41 47.33,-13.09 67.85,-1.94 13.19,7.17 18.64,20.94 14.4,35.34 q -2.4,8.17 -5.91,13.64 -9.19,14.3 -22.93,25.34 -17.08,13.71 -37.59,23.33 a 0.16,0.15 -41.1 0 0 -0.02,0.27 c 17.24,11.5 36.95,14.73 57.74,12.18 5.98,-0.73 13.41,-2.88 18.43,-4.36 a 0.31,0.31 0 0 1 0.35,0.46 q -9.6,15.93 -24.71,27.02 -29.29,21.5 -64.8,11.78 a 0.36,0.36 0 0 0 -0.42,0.49 c 8.45,18.9 24.56,33 44.21,39.78 a 0.53,0.52 -41.2 0 1 -0.07,1.01 c -4.2,0.89 -13.27,2.77 -19.27,3.24 q -21.4,1.65 -40.4,-8.33 -8.29,-4.36 -14.19,-8.16 A 0.22,0.21 6.7 0 0 786,695.8 c 4.82,13.52 7.39,27.1 4.56,41.22 q -1.78,8.83 -4.72,17.12 a 0.38,0.38 0 0 1 -0.73,-0.02 c -3.58,-12.52 -9.28,-23.86 -19.85,-32.07 -11.04,-8.57 -23.88,-9.46 -36.93,-6.17 a 0.32,0.32 0 0 1 -0.36,-0.47 q 25.15,-42.96 32.24,-92.41 1.45,-10.12 1.41,-18.59 a 0.67,0.67 0 0 1 0.55,-0.66 c 12.53,-2.2 25.71,-3.92 36.83,-6.73 q 0.28,-0.07 0.38,-0.42 0.12,-0.44 -0.32,-0.55 -27.14,-6.52 -55.56,-6.82 -22.46,-0.24 -39.5,1.05 -29.29,2.23 -53.25,2.93 -49.42,1.43 -98.5,-8.24 c -24.16,-4.76 -42.68,-9.7 -72.03,-17.45 -15.83,-4.18 -30.3,-7.17 -44.66,-9.78 a 0.41,0.41 0 0 0 -0.43,0.61 q 0.2,0.34 0.86,0.72 23.51,13.82 47.56,23.9 a 0.68,0.67 -76 0 1 0.41,0.69 c -2.03,17.11 -1.19,33.98 2.06,50.69 q 7.01,36.02 25.89,69.01 z"
       id="path7"
       style="fill:#ffffff;fill-opacity:1"
       inkscape:label="Hair"
       transform="matrix(1.5905698,0,0,1.5905698,-364.97279,-194.6736)" />
    <path
       fill="#8ebf3c"
       d="m 773.68532,499.58536 c 1.38465,0.85469 3.66399,1.93566 3.52,3.83 -1.62,7.76667 -3.3,14.97 -5.04,21.61 -0.20998,0.79551 -0.74799,1.46438 -1.48,1.84 -23.30667,11.94667 -41.51865,20.39131 -67.72532,23.78464 -12.97333,1.68667 -23.37667,2.49333 -31.21,2.42 -7.95333,-0.0733 -15.95,-0.22 -23.99,-0.44 -2.47333,-0.0667 -8.15,-0.58667 -17.03,-1.56 -18.92,-2.08 -37.41,-6.4 -56.11,-12.07 -5.11333,-1.54667 -10.16667,-3.33333 -15.16,-5.36 -6.72,-2.73 -12.96,-4.85 -19.89,-8.07 -19.42667,-9.02667 -38.70667,-18.64333 -57.84,-28.85 -0.32571,-0.17315 -0.52948,-0.50765 -0.53,-0.87 -0.1,-15.98667 -0.33,-31.63667 -0.69,-46.95 -0.0133,-0.68667 0.0267,-1.28 0.12,-1.78 0.18667,-1.02 0.48,-1.47 0.88,-1.35 137.03823,-8.5704 233.82617,19.26839 292.17532,53.81536 z"
       id="path6"
       sodipodi:nodetypes="ccccccccccccccccc"
       inkscape:label="Green band"
       transform="matrix(1.5905698,0,0,1.5905698,-364.97279,-194.6736)" />
  </g>
</svg>
