<?xml version="1.0" encoding="UTF-8" standalone="no"?>
<svg
   version="1.1"
   viewBox="0.00 0.00 1254.00 1254.00"
   id="svg27"
   inkscape:version="1.3.2 (091e20e, 2023-11-25)"
   xmlns:inkscape="http://www.inkscape.org/namespaces/inkscape"
   xmlns:sodipodi="http://sodipodi.sourceforge.net/DTD/sodipodi-0.dtd"
   xmlns="http://www.w3.org/2000/svg"
   xmlns:svg="http://www.w3.org/2000/svg">
  <defs
     id="defs27" />
  <rect
     style="fill:#321150;fill-opacity:1;stroke:#000000;stroke-width:2;stroke-linecap:round;stroke-linejoin:round;paint-order:stroke fill markers"
     id="rect27"
     width="1254"
     height="1254"
     x="0"
     y="0"
     inkscape:label="BG"
     ry="400" />
  <g
     id="g27"
     inkscape:label="Icon"
     transform="matrix(1.5905698,0,0,1.5905698,-364.97279,-194.6736)">
    <g
       id="g19">
      <path
         fill="#ffffff"
         d="m 669.23,461.13 c -11,-2.43 -22.4,-5 -33.03,-6.85 q -76.82,-13.38 -154.69,-8.51 -2.34,-49.93 -12.9,-101.18 -3.81,-18.46 -7.27,-30.39 -9.81,-33.76 -26.97,-63.74 -3.24,-5.67 -3.83,-7.95 c -1.88,-7.28 0.4,-14.5 7.07,-18.63 q 4.5,-2.78 8.07,-4.2 c 47.77,-18.9 99.51,-29.77 150.07,-34.35 q 57.18,-5.19 112.78,2.37 c 26.5,3.6 53.86,9.81 77.5,18.31 22.25,8 42.77,18.79 60.72,33.33 5.48,4.44 7.52,10.18 6.69,16.84 q -0.4,3.16 -3.9,9.74 -17.38,32.66 -31.27,65.53 c -5.16,12.22 -9.08,23.19 -14.3,36.58 a 0.62,0.62 0 0 1 -0.83,0.33 Q 780.47,357.86 758.5,351 q -12.84,-4 -32.26,-8.69 -17.78,-4.3 -35.99,-6.46 a 0.65,0.63 -81.7 0 0 -0.71,0.54 q -7.74,52.03 -17.38,107.21 c -0.85,4.89 -2.27,11.62 -2.93,17.53 z"
         id="path2" />
      <path
         fill="#ffffff"
         d="m 781.61,499.73 q -0.39,1.11 -1.38,0.63 -7.29,-3.51 -14.55,-7.06 a 0.62,0.6 8.8 0 1 -0.34,-0.45 q -0.03,-0.17 -0.08,-0.34 c 7.06,-2.66 11.23,-8.67 11.57,-15.96 0.39,-8.44 -4.63,-14.59 -13,-15.33 a 0.41,0.41 0 0 1 -0.21,-0.73 l 12.83,-9.77 a 3.28,3.27 -43.1 0 0 0.17,-5.08 l -0.29,-0.25 a 4.87,4.87 0 0 0 -6.39,-0.13 c -6.75,5.64 -13.19,10.29 -19.04,16.88 -5,5.62 -7.5,14.86 -4.28,22.07 q 0.07,0.14 -0.03,0.35 a 0.28,0.27 23.3 0 1 -0.34,0.13 l -18.41,-6.89 62.61,-67.25 a 3.69,3.67 -47.8 0 0 -0.25,-5.28 l -0.14,-0.12 a 3.97,3.96 42.2 0 0 -5.5,0.26 q -31.27,33.18 -61.53,66.12 -1.27,1.38 -2.65,3.39 L 681.1,463.89 699.87,350.53 a 0.6,0.6 0 0 1 0.7,-0.49 q 30.93,5.32 61.03,15.4 19.21,6.43 42.67,17.8 c 9.43,4.57 17.69,9.86 27.24,15.12 a 0.72,0.72 0 0 1 0.27,1 q -10.65,17.94 -21.56,38.11 -4.91,9.07 -9.68,19.16 c -7.88,16.69 -12.66,28.69 -18.93,43.1 z"
         id="path3" />
      <path
         fill="#321150"
         d="m 727.84,477.8 -7.46,-2.88 q 1.38,-2.01 2.65,-3.39 30.26,-32.94 61.53,-66.12 a 3.97,3.96 42.2 0 1 5.5,-0.26 l 0.14,0.12 a 3.69,3.67 -47.8 0 1 0.25,5.28 z"
         id="path4" />
      <path
         fill="#321150"
         d="m 765.26,492.51 q -1.24,-0.04 -1.57,-0.19 -7.97,-3.64 -16.07,-6.97 a 0.97,0.9 -5.2 0 1 -0.39,-0.3 l -0.61,-0.84 c -3.22,-7.21 -0.72,-16.45 4.28,-22.07 5.85,-6.59 12.29,-11.24 19.04,-16.88 a 4.87,4.87 0 0 1 6.39,0.13 l 0.29,0.25 a 3.28,3.27 -43.1 0 1 -0.17,5.08 l -12.83,9.77 a 0.41,0.41 0 0 0 0.21,0.73 c 8.37,0.74 13.39,6.89 13,15.33 -0.34,7.29 -4.51,13.3 -11.57,15.96 z"
         id="path5" />
      <path
         fill="#8ebf3c"
         d="m 669.23,461.13 11.87,2.76 39.28,11.03 7.46,2.88 18.41,6.89 a 0.28,0.27 23.3 0 0 0.34,-0.13 q 0.1,-0.21 0.03,-0.35 l 0.61,0.84 a 0.97,0.9 -5.2 0 0 0.39,0.3 q 8.1,3.33 16.07,6.97 0.33,0.15 1.57,0.19 0.05,0.17 0.08,0.34 a 0.62,0.6 8.8 0 0 0.34,0.45 q 7.26,3.55 14.55,7.06 0.99,0.48 1.38,-0.63 0.19,2.09 1.28,2.63 1.12,0.55 0.86,1.83 -2.43,11.65 -5.04,21.61 a 2.9,2.9 0 0 1 -1.48,1.84 q -34.96,17.92 -74.27,23.01 -19.46,2.53 -31.21,2.42 -11.93,-0.11 -23.99,-0.44 -3.71,-0.1 -17.03,-1.56 c -18.92,-2.08 -37.41,-6.4 -56.11,-12.07 q -7.67,-2.32 -15.16,-5.36 c -6.72,-2.73 -12.96,-4.85 -19.89,-8.07 q -29.14,-13.54 -57.84,-28.85 a 1,0.98 14.2 0 1 -0.53,-0.87 q -0.15,-23.98 -0.69,-46.95 -0.02,-1.03 0.12,-1.78 0.28,-1.53 0.88,-1.35 77.87,-4.87 154.69,8.51 c 10.63,1.85 22.03,4.42 33.03,6.85 z"
         id="path6" />
      <path
         fill="#ffffff"
         d="m 511.91,703.36 a 0.21,0.21 0 0 1 -0.29,0.29 c -13.71,-7.71 -31.42,-8.42 -44.49,0.4 -11.84,7.99 -18.72,18.62 -22.88,31.9 a 0.3,0.3 0 0 1 -0.56,0.02 c -4.27,-10.94 -6.71,-23.85 -5.04,-35.5 q 1.72,-12.01 7.71,-22.71 a 0.43,0.43 0 0 0 -0.59,-0.58 c -12.79,7.37 -27.16,11.33 -42.03,10.23 q -16.92,-1.26 -31.97,-8.06 a 0.36,0.35 -37.7 0 1 0.09,-0.67 c 14.96,-2.54 26.59,-9.33 37.56,-19.79 q 6.73,-6.42 10.72,-13.61 a 0.42,0.42 0 0 0 -0.48,-0.61 c -2.96,0.82 -6.19,0.95 -10.4,1.38 -27.53,2.82 -51,-8.63 -67.92,-30.29 a 0.18,0.18 0 0 1 0.16,-0.29 q 7.31,0.6 9,0.79 c 24.78,2.88 45.49,-4.88 63.24,-20.09 a 0.59,0.58 -49.1 0 0 -0.06,-0.94 q -22.7,-14.39 -39.69,-34.96 c -11.46,-13.88 -22.59,-33.54 -20.64,-51.75 2.13,-19.94 18.44,-28.11 36.66,-28.64 11.76,-0.35 24.93,2.23 36.82,6.24 27.25,9.19 47.31,20.47 77.08,36.18 q 29.73,15.69 61.46,26.84 26.44,9.29 53.88,13.23 46.93,6.73 93.96,-0.72 29.26,-4.63 55.81,-16.39 16.18,-7.17 28.11,-13.37 6.31,-3.28 16.52,-7.43 c 20.67,-8.41 47.33,-13.09 67.85,-1.94 13.19,7.17 18.64,20.94 14.4,35.34 q -2.4,8.17 -5.91,13.64 -9.19,14.3 -22.93,25.34 -17.08,13.71 -37.59,23.33 a 0.16,0.15 -41.1 0 0 -0.02,0.27 c 17.24,11.5 36.95,14.73 57.74,12.18 5.98,-0.73 13.41,-2.88 18.43,-4.36 a 0.31,0.31 0 0 1 0.35,0.46 q -9.6,15.93 -24.71,27.02 -29.29,21.5 -64.8,11.78 a 0.36,0.36 0 0 0 -0.42,0.49 c 8.45,18.9 24.56,33 44.21,39.78 a 0.53,0.52 -41.2 0 1 -0.07,1.01 c -4.2,0.89 -13.27,2.77 -19.27,3.24 q -21.4,1.65 -40.4,-8.33 -8.29,-4.36 -14.19,-8.16 A 0.22,0.21 6.7 0 0 786,695.8 c 4.82,13.52 7.39,27.1 4.56,41.22 q -1.78,8.83 -4.72,17.12 a 0.38,0.38 0 0 1 -0.73,-0.02 c -3.58,-12.52 -9.28,-23.86 -19.85,-32.07 -11.04,-8.57 -23.88,-9.46 -36.93,-6.17 a 0.32,0.32 0 0 1 -0.36,-0.47 q 25.15,-42.96 32.24,-92.41 1.45,-10.12 1.41,-18.59 a 0.67,0.67 0 0 1 0.55,-0.66 c 12.53,-2.2 25.71,-3.92 36.83,-6.73 q 0.28,-0.07 0.38,-0.42 0.12,-0.44 -0.32,-0.55 -27.14,-6.52 -55.56,-6.82 -22.46,-0.24 -39.5,1.05 -29.29,2.23 -53.25,2.93 -49.42,1.43 -98.5,-8.24 c -24.16,-4.76 -42.68,-9.7 -72.03,-17.45 -15.83,-4.18 -30.3,-7.17 -44.66,-9.78 a 0.41,0.41 0 0 0 -0.43,0.61 q 0.2,0.34 0.86,0.72 23.51,13.82 47.56,23.9 a 0.68,0.67 -76 0 1 0.41,0.69 c -2.03,17.11 -1.19,33.98 2.06,50.69 q 7.01,36.02 25.89,69.01 z"
         id="path7" />
      <path
         fill="#8ebf3c"
         d="m 597.15,775.66 c -0.45,1.78 -1,4.01 -1.14,5.81 q -1.42,18.37 0.49,36.06 a 1.77,1.77 0 0 1 -0.56,1.48 c -16.48,15.09 -36.49,26.26 -58.45,30.68 q -1.55,0.31 -4.78,0.11 a 1.87,1.81 -21 0 1 -1.15,-0.49 q -1.89,-1.73 -2.58,-2.84 -8.89,-14.27 -13.84,-31.35 -9.39,-32.46 1.81,-64.42 1.9,-5.42 4.42,-10.06 c 1.92,-3.55 6.26,-3.13 10.11,-2.35 3.66,0.74 10.45,1.98 15.09,3.88 q 13.81,5.68 20.93,9.67 11.77,6.6 24.28,17.47 3.57,3.1 5.16,5.27 a 1.29,1.29 0 0 1 0.21,1.08 z"
         id="path8" />
      <path
         fill="#8ebf3c"
         d="m 652.98,817.14 q 1.86,-19.61 0.06,-41.36 a 2.35,2.33 -25 0 1 0.67,-1.82 q 19.61,-19.63 45.25,-29.49 11.35,-4.37 20.19,-6.26 c 6.6,-1.41 8.6,-0.05 11.31,6.11 6.75,15.37 9.28,31.83 7.98,49.16 -1.45,19.43 -8.19,37.74 -18.14,54.52 -2.21,3.74 -11.39,1.23 -15.69,-0.11 q -26.03,-8.12 -46.84,-25.36 c -1.6,-1.33 -3.6,-2.2 -4.65,-4.55 a 1.69,1.66 -54.9 0 1 -0.14,-0.84 z"
         id="path9" />
      <path
         fill="#8ebf3c"
         d="m 603.61,782.71 a 8.15,8.15 0 0 1 8.15,-8.15 h 25.72 a 8.93,8.79 90 0 1 8.79,8.93 v 26.28 a 8.93,8.79 90 0 1 -8.79,8.93 h -25.72 a 8.15,8.15 0 0 1 -8.15,-8.15 z"
         id="path10" />
    </g>
    <g
       id="g26">
      <path
         fill="#321150"
         d="m 714.93,396.57 a 0.48,0.48 0 0 0 -0.67,-0.56 c -1.29,0.6 -3.04,1.36 -4.7,0.78 q -2.73,-0.96 -2.3,-4.53 c 0.22,-1.86 1.29,-2.77 3.1,-3.23 q 5.64,-1.45 9.18,-4.27 c 2.4,-1.91 6.02,-0.89 6.57,2.46 a 1.8,1.68 50.1 0 1 -0.04,0.74 l -10.82,40.91 a 4.39,4.38 -75.8 0 1 -5.25,3.14 l -0.35,-0.08 a 3.96,3.96 0 0 1 -3.08,-4.94 z"
         id="path20" />
      <path
         fill="#321150"
         d="m 748.88,390.97 c 9.21,2.58 12.4,11.81 11.28,20.65 q -0.5,3.94 -1.7,8.22 -1.2,4.28 -2.82,7.91 c -3.63,8.13 -11.15,14.36 -20.36,11.78 -9.21,-2.58 -12.4,-11.81 -11.28,-20.64 q 0.5,-3.94 1.69,-8.23 1.2,-4.28 2.83,-7.91 c 3.63,-8.13 11.15,-14.36 20.36,-11.78 z"
         id="path21" />
      <ellipse
         fill="#ffffff"
         cx="0"
         cy="0"
         transform="rotate(-68.2,732.3447,-323.80092)"
         rx="8.5200005"
         ry="7.46"
         id="ellipse21" />
    </g>
    <path
       fill="#ffffff"
       d="m 746.93,398.59 q 7.84,2.31 3.01,18.73 -4.83,16.42 -12.67,14.11 -7.84,-2.3 -3.01,-18.72 4.83,-16.42 12.67,-14.12 z"
       id="path27" />
  </g>
</svg>
