<?xml version="1.0" encoding="UTF-8" standalone="no"?>
<!DOCTYPE svg PUBLIC "-//W3C//DTD SVG 1.1//EN" "http://www.w3.org/Graphics/SVG/1.1/DTD/svg11.dtd">
<svg xmlns="http://www.w3.org/2000/svg" version="1.1" viewBox="0.00 0.00 1254.00 1254.00">
<path fill="#321150" d="
  M 1254.00 0.00
  L 1254.00 1254.00
  L 0.00 1254.00
  L 0.00 0.00
  L 1254.00 0.00
  Z"
/>
<g>
<path fill="#ffffff" d="
  M 669.23 461.13
  C 658.23 458.70 646.83 456.13 636.20 454.28
  Q 559.38 440.90 481.51 445.77
  Q 479.17 395.84 468.61 344.59
  Q 464.80 326.13 461.34 314.20
  Q 451.53 280.44 434.37 250.46
  Q 431.13 244.79 430.54 242.51
  C 428.66 235.23 430.94 228.01 437.61 223.88
  Q 442.11 221.10 445.68 219.68
  C 493.45 200.78 545.19 189.91 595.75 185.33
  Q 652.93 180.14 708.53 187.70
  C 735.03 191.30 762.39 197.51 786.03 206.01
  C 808.28 214.01 828.80 224.80 846.75 239.34
  C 852.23 243.78 854.27 249.52 853.44 256.18
  Q 853.04 259.34 849.54 265.92
  Q 832.16 298.58 818.27 331.45
  C 813.11 343.67 809.19 354.64 803.97 368.03
  A 0.62 0.62 0.0 0 1 803.14 368.36
  Q 780.47 357.86 758.50 351.00
  Q 745.66 347.00 726.24 342.31
  Q 708.46 338.01 690.25 335.85
  A 0.65 0.63 -81.7 0 0 689.54 336.39
  Q 681.80 388.42 672.16 443.60
  C 671.31 448.49 669.89 455.22 669.23 461.13
  Z"
/>
<path fill="#ffffff" d="
  M 781.61 499.73
  Q 781.22 500.84 780.23 500.36
  Q 772.94 496.85 765.68 493.30
  A 0.62 0.60 8.8 0 1 765.34 492.85
  Q 765.31 492.68 765.26 492.51
  C 772.32 489.85 776.49 483.84 776.83 476.55
  C 777.22 468.11 772.20 461.96 763.83 461.22
  A 0.41 0.41 0.0 0 1 763.62 460.49
  L 776.45 450.72
  A 3.28 3.27 -43.1 0 0 776.62 445.64
  L 776.33 445.39
  A 4.87 4.87 0.0 0 0 769.94 445.26
  C 763.19 450.90 756.75 455.55 750.90 462.14
  C 745.90 467.76 743.40 477.00 746.62 484.21
  Q 746.69 484.35 746.59 484.56
  A 0.28 0.27 23.3 0 1 746.25 484.69
  L 727.84 477.80
  L 790.45 410.55
  A 3.69 3.67 -47.8 0 0 790.20 405.27
  L 790.06 405.15
  A 3.97 3.96 42.2 0 0 784.56 405.41
  Q 753.29 438.59 723.03 471.53
  Q 721.76 472.91 720.38 474.92
  L 681.10 463.89
  L 699.87 350.53
  A 0.60 0.60 0.0 0 1 700.57 350.04
  Q 731.50 355.36 761.60 365.44
  Q 780.81 371.87 804.27 383.24
  C 813.70 387.81 821.96 393.10 831.51 398.36
  A 0.72 0.72 0.0 0 1 831.78 399.36
  Q 821.13 417.30 810.22 437.47
  Q 805.31 446.54 800.54 456.63
  C 792.66 473.32 787.88 485.32 781.61 499.73
  Z"
/>
<path fill="#321150" d="
  M 727.84 477.80
  L 720.38 474.92
  Q 721.76 472.91 723.03 471.53
  Q 753.29 438.59 784.56 405.41
  A 3.97 3.96 42.2 0 1 790.06 405.15
  L 790.20 405.27
  A 3.69 3.67 -47.8 0 1 790.45 410.55
  L 727.84 477.80
  Z"
/>
<path fill="#321150" d="
  M 765.26 492.51
  Q 764.02 492.47 763.69 492.32
  Q 755.72 488.68 747.62 485.35
  A 0.97 0.90 -5.2 0 1 747.23 485.05
  L 746.62 484.21
  C 743.40 477.00 745.90 467.76 750.90 462.14
  C 756.75 455.55 763.19 450.90 769.94 445.26
  A 4.87 4.87 0.0 0 1 776.33 445.39
  L 776.62 445.64
  A 3.28 3.27 -43.1 0 1 776.45 450.72
  L 763.62 460.49
  A 0.41 0.41 0.0 0 0 763.83 461.22
  C 772.20 461.96 777.22 468.11 776.83 476.55
  C 776.49 483.84 772.32 489.85 765.26 492.51
  Z"
/>
<path fill="#8ebf3c" d="
  M 669.23 461.13
  L 681.10 463.89
  L 720.38 474.92
  L 727.84 477.80
  L 746.25 484.69
  A 0.28 0.27 23.3 0 0 746.59 484.56
  Q 746.69 484.35 746.62 484.21
  L 747.23 485.05
  A 0.97 0.90 -5.2 0 0 747.62 485.35
  Q 755.72 488.68 763.69 492.32
  Q 764.02 492.47 765.26 492.51
  Q 765.31 492.68 765.34 492.85
  A 0.62 0.60 8.8 0 0 765.68 493.30
  Q 772.94 496.85 780.23 500.36
  Q 781.22 500.84 781.61 499.73
  Q 781.80 501.82 782.89 502.36
  Q 784.01 502.91 783.75 504.19
  Q 781.32 515.84 778.71 525.80
  A 2.90 2.90 0.0 0 1 777.23 527.64
  Q 742.27 545.56 702.96 550.65
  Q 683.50 553.18 671.75 553.07
  Q 659.82 552.96 647.76 552.63
  Q 644.05 552.53 630.73 551.07
  C 611.81 548.99 593.32 544.67 574.62 539.00
  Q 566.95 536.68 559.46 533.64
  C 552.74 530.91 546.50 528.79 539.57 525.57
  Q 510.43 512.03 481.73 496.72
  A 1.00 0.98 14.2 0 1 481.20 495.85
  Q 481.05 471.87 480.51 448.90
  Q 480.49 447.87 480.63 447.12
  Q 480.91 445.59 481.51 445.77
  Q 559.38 440.90 636.20 454.28
  C 646.83 456.13 658.23 458.70 669.23 461.13
  Z"
/>
<path fill="#ffffff" d="
  M 511.91 703.36
  A 0.21 0.21 0.0 0 1 511.62 703.65
  C 497.91 695.94 480.20 695.23 467.13 704.05
  C 455.29 712.04 448.41 722.67 444.25 735.95
  A 0.30 0.30 0.0 0 1 443.69 735.97
  C 439.42 725.03 436.98 712.12 438.65 700.47
  Q 440.37 688.46 446.36 677.76
  A 0.43 0.43 0.0 0 0 445.77 677.18
  C 432.98 684.55 418.61 688.51 403.74 687.41
  Q 386.82 686.15 371.77 679.35
  A 0.36 0.35 -37.7 0 1 371.86 678.68
  C 386.82 676.14 398.45 669.35 409.42 658.89
  Q 416.15 652.47 420.14 645.28
  A 0.42 0.42 0.0 0 0 419.66 644.67
  C 416.70 645.49 413.47 645.62 409.26 646.05
  C 381.73 648.87 358.26 637.42 341.34 615.76
  A 0.18 0.18 0.0 0 1 341.50 615.47
  Q 348.81 616.07 350.50 616.26
  C 375.28 619.14 395.99 611.38 413.74 596.17
  A 0.59 0.58 -49.1 0 0 413.68 595.23
  Q 390.98 580.84 373.99 560.27
  C 362.53 546.39 351.40 526.73 353.35 508.52
  C 355.48 488.58 371.79 480.41 390.01 479.88
  C 401.77 479.53 414.94 482.11 426.83 486.12
  C 454.08 495.31 474.14 506.59 503.91 522.30
  Q 533.64 537.99 565.37 549.14
  Q 591.81 558.43 619.25 562.37
  Q 666.18 569.10 713.21 561.65
  Q 742.47 557.02 769.02 545.26
  Q 785.20 538.09 797.13 531.89
  Q 803.44 528.61 813.65 524.46
  C 834.32 516.05 860.98 511.37 881.50 522.52
  C 894.69 529.69 900.14 543.46 895.90 557.86
  Q 893.50 566.03 889.99 571.50
  Q 880.80 585.80 867.06 596.84
  Q 849.98 610.55 829.47 620.17
  A 0.16 0.15 -41.1 0 0 829.45 620.44
  C 846.69 631.94 866.40 635.17 887.19 632.62
  C 893.17 631.89 900.60 629.74 905.62 628.26
  A 0.31 0.31 0.0 0 1 905.97 628.72
  Q 896.37 644.65 881.26 655.74
  Q 851.97 677.24 816.46 667.52
  A 0.36 0.36 0.0 0 0 816.04 668.01
  C 824.49 686.91 840.60 701.01 860.25 707.79
  A 0.53 0.52 -41.2 0 1 860.18 708.80
  C 855.98 709.69 846.91 711.57 840.91 712.04
  Q 819.51 713.69 800.51 703.71
  Q 792.22 699.35 786.32 695.55
  A 0.22 0.21 6.7 0 0 786.00 695.80
  C 790.82 709.32 793.39 722.90 790.56 737.02
  Q 788.78 745.85 785.84 754.14
  A 0.38 0.38 0.0 0 1 785.11 754.12
  C 781.53 741.60 775.83 730.26 765.26 722.05
  C 754.22 713.48 741.38 712.59 728.33 715.88
  A 0.32 0.32 0.0 0 1 727.97 715.41
  Q 753.12 672.45 760.21 623.00
  Q 761.66 612.88 761.62 604.41
  A 0.67 0.67 0.0 0 1 762.17 603.75
  C 774.70 601.55 787.88 599.83 799.00 597.02
  Q 799.28 596.95 799.38 596.60
  Q 799.50 596.16 799.06 596.05
  Q 771.92 589.53 743.50 589.23
  Q 721.04 588.99 704.00 590.28
  Q 674.71 592.51 650.75 593.21
  Q 601.33 594.64 552.25 584.97
  C 528.09 580.21 509.57 575.27 480.22 567.52
  C 464.39 563.34 449.92 560.35 435.56 557.74
  A 0.41 0.41 0.0 0 0 435.13 558.35
  Q 435.33 558.69 435.99 559.07
  Q 459.50 572.89 483.55 582.97
  A 0.68 0.67 -76.0 0 1 483.96 583.66
  C 481.93 600.77 482.77 617.64 486.02 634.35
  Q 493.03 670.37 511.91 703.36
  Z"
/>
<path fill="#8ebf3c" d="
  M 597.15 775.66
  C 596.70 777.44 596.15 779.67 596.01 781.47
  Q 594.59 799.84 596.50 817.53
  A 1.77 1.77 0.0 0 1 595.94 819.01
  C 579.46 834.10 559.45 845.27 537.49 849.69
  Q 535.94 850.00 532.71 849.80
  A 1.87 1.81 -21.0 0 1 531.56 849.31
  Q 529.67 847.58 528.98 846.47
  Q 520.09 832.20 515.14 815.12
  Q 505.75 782.66 516.95 750.70
  Q 518.85 745.28 521.37 740.64
  C 523.29 737.09 527.63 737.51 531.48 738.29
  C 535.14 739.03 541.93 740.27 546.57 742.17
  Q 560.38 747.85 567.50 751.84
  Q 579.27 758.44 591.78 769.31
  Q 595.35 772.41 596.94 774.58
  A 1.29 1.29 0.0 0 1 597.15 775.66
  Z"
/>
<path fill="#8ebf3c" d="
  M 652.98 817.14
  Q 654.84 797.53 653.04 775.78
  A 2.35 2.33 -25.0 0 1 653.71 773.96
  Q 673.32 754.33 698.96 744.47
  Q 710.31 740.10 719.15 738.21
  C 725.75 736.80 727.75 738.16 730.46 744.32
  C 737.21 759.69 739.74 776.15 738.44 793.48
  C 736.99 812.91 730.25 831.22 720.30 848.00
  C 718.09 851.74 708.91 849.23 704.61 847.89
  Q 678.58 839.77 657.77 822.53
  C 656.17 821.20 654.17 820.33 653.12 817.98
  A 1.69 1.66 -54.9 0 1 652.98 817.14
  Z"
/>
<path fill="#8ebf3c" d="
  M 603.61 782.71
  A 8.15 8.15 0.0 0 1 611.76 774.56
  L 637.48 774.56
  A 8.93 8.79 90.0 0 1 646.27 783.49
  L 646.27 809.77
  A 8.93 8.79 90.0 0 1 637.48 818.70
  L 611.76 818.70
  A 8.15 8.15 0.0 0 1 603.61 810.55
  L 603.61 782.71
  Z"
/>
<path fill="#ffffff" d="
  M 248.80 933.12
  Q 248.35 933.25 247.95 933.97
  Q 244.18 940.73 225.96 972.46
  Q 222.97 977.69 217.25 977.84
  C 210.24 978.02 209.11 974.43 205.52 968.16
  Q 197.13 953.52 185.45 933.29
  A 0.36 0.36 0.0 0 0 184.83 933.28
  Q 184.66 933.55 184.66 934.25
  Q 184.68 942.09 184.65 987.18
  Q 184.65 990.22 181.92 993.35
  C 178.64 997.11 173.26 997.74 168.93 995.28
  C 165.02 993.05 164.26 988.75 164.27 983.94
  Q 164.37 949.15 164.18 906.18
  Q 164.16 900.04 165.03 897.99
  C 167.35 892.57 172.73 891.48 178.52 891.99
  Q 184.38 892.50 187.41 897.84
  Q 196.25 913.38 216.84 950.38
  A 0.62 0.62 0.0 0 0 217.93 950.37
  Q 233.64 921.04 246.73 898.26
  C 249.51 893.42 252.81 892.15 258.31 892.08
  C 263.05 892.02 266.37 893.04 268.60 897.27
  Q 269.67 899.30 269.67 904.08
  Q 269.69 965.91 269.64 985.49
  C 269.62 994.50 262.49 999.24 254.17 995.52
  C 250.25 993.77 249.09 989.73 249.06 985.17
  Q 248.93 958.33 249.15 933.39
  A 0.28 0.27 82.2 0 0 248.80 933.12
  Z"
/>
<path fill="#ffffff" d="
  M 397.76 901.97
  A 10.09 10.09 0.0 0 1 407.85 891.88
  L 439.81 891.88
  A 49.01 49.01 0.0 0 1 488.82 940.89
  L 488.82 947.59
  A 49.01 49.01 0.0 0 1 439.81 996.60
  L 407.85 996.60
  A 10.09 10.09 0.0 0 1 397.76 986.51
  L 397.76 901.97
  Z"
/>
<path fill="#8ebf3c" d="
  M 781.07 891.84
  C 793.90 891.86 794.30 900.55 798.45 910.50
  Q 810.68 939.76 827.21 980.27
  C 829.11 984.92 830.06 989.14 827.17 993.09
  C 822.85 999.02 813.10 998.21 809.99 991.18
  Q 806.52 983.33 803.41 974.86
  A 1.26 1.26 0.0 0 0 802.26 974.04
  Q 795.51 973.90 780.94 973.87
  Q 766.37 973.85 759.62 973.97
  A 1.26 1.26 0.0 0 0 758.47 974.79
  Q 755.33 983.25 751.83 991.09
  C 748.70 998.11 738.95 998.89 734.65 992.94
  C 731.77 988.98 732.73 984.76 734.65 980.12
  Q 751.31 939.66 763.63 910.44
  C 767.82 900.50 768.24 891.81 781.07 891.84
  Z"
/>
<path fill="#ffffff" d="
  M 355.76 973.80
  L 311.89 973.80
  A 0.93 0.92 11.6 0 0 311.04 974.35
  Q 306.53 984.69 305.11 988.51
  Q 303.47 992.90 301.84 994.22
  C 296.95 998.14 289.56 997.55 286.25 992.09
  C 283.76 987.99 284.52 985.14 286.49 980.50
  Q 301.76 944.53 311.65 920.89
  Q 319.33 902.53 321.28 898.53
  C 324.79 891.32 332.41 891.33 339.39 892.40
  C 344.31 893.16 346.60 897.11 348.58 901.78
  Q 365.64 942.04 382.40 982.16
  C 388.07 995.75 368.15 1002.88 363.19 990.30
  Q 362.22 987.84 356.61 974.36
  A 0.93 0.92 -11.6 0 0 355.76 973.80
  Z"
/>
<path fill="#8ebf3c" d="
  M 587.76 934.52
  Q 603.98 934.52 609.82 934.58
  A 0.65 0.65 0.0 0 0 610.47 933.93
  Q 610.43 910.46 610.45 903.34
  C 610.46 898.95 611.63 894.58 615.57 893.02
  C 621.01 890.86 627.65 891.89 630.06 897.65
  Q 630.87 899.58 630.87 903.99
  Q 630.84 953.53 630.79 986.99
  Q 630.79 990.64 628.33 993.59
  C 625.14 997.45 618.30 997.73 614.51 994.99
  Q 610.52 992.10 610.51 986.66
  Q 610.44 954.38 610.45 953.86
  A 0.95 0.95 0.0 0 0 609.58 952.89
  Q 608.78 952.82 587.76 952.82
  Q 566.73 952.82 565.93 952.89
  A 0.95 0.95 0.0 0 0 565.06 953.86
  Q 565.07 954.38 565.00 986.66
  Q 564.99 992.10 561.00 994.99
  C 557.21 997.73 550.37 997.45 547.18 993.59
  Q 544.72 990.64 544.72 986.99
  Q 544.67 953.53 544.65 903.99
  Q 544.65 899.58 545.46 897.65
  C 547.87 891.89 554.51 890.86 559.95 893.02
  C 563.89 894.58 565.06 898.95 565.07 903.34
  Q 565.09 910.46 565.04 933.93
  A 0.65 0.65 0.0 0 0 565.70 934.58
  Q 571.53 934.52 587.76 934.52
  Z"
/>
<path fill="#8ebf3c" d="
  M 671.24 953.61
  L 671.24 977.00
  A 0.84 0.84 0.0 0 0 672.08 977.84
  Q 703.39 977.81 713.92 977.72
  C 723.62 977.63 726.25 991.18 717.98 995.53
  Q 715.74 996.70 710.81 996.69
  Q 696.17 996.66 664.43 996.70
  Q 657.35 996.70 654.77 995.34
  Q 650.46 993.06 650.45 986.98
  Q 650.34 930.76 650.33 909.00
  C 650.33 902.72 649.88 896.60 654.70 893.45
  Q 656.74 892.12 662.53 892.08
  Q 674.70 892.00 713.00 892.14
  Q 718.04 892.15 720.54 895.68
  C 723.73 900.19 723.22 906.97 718.05 909.79
  Q 716.35 910.72 712.43 910.71
  Q 690.48 910.67 671.80 910.83
  A 0.59 0.59 0.0 0 0 671.21 911.42
  L 671.21 934.11
  A 0.57 0.56 89.0 0 0 671.79 934.68
  Q 679.27 934.53 696.74 934.52
  Q 703.69 934.51 705.59 935.50
  C 710.58 938.09 712.15 944.81 708.68 949.42
  C 706.61 952.17 703.89 952.87 700.41 952.73
  Q 696.38 952.58 671.93 952.91
  A 0.70 0.70 0.0 0 0 671.24 953.61
  Z"
/>
<path fill="#8ebf3c" d="
  M 840.02 901.74
  A 9.75 9.75 0.0 0 1 849.75 891.97
  L 879.37 891.92
  A 48.19 48.13 89.9 0 1 927.58 940.02
  L 927.60 948.34
  A 48.19 48.13 89.9 0 1 879.55 996.62
  L 849.93 996.67
  A 9.75 9.75 0.0 0 1 840.16 986.94
  L 840.02 901.74
  Z"
/>
<path fill="#8ebf3c" d="
  M 961.63 952.86
  A 0.42 0.41 -0.7 0 0 961.22 953.27
  L 961.22 977.05
  A 1.00 1.00 0.0 0 0 962.25 978.05
  Q 979.05 977.55 1004.24 977.84
  C 1014.36 977.95 1016.77 991.98 1007.93 995.84
  Q 1005.81 996.76 1001.57 996.74
  Q 970.07 996.52 952.97 996.73
  Q 947.39 996.80 944.82 995.25
  Q 940.35 992.57 940.38 986.26
  Q 940.61 945.78 940.44 900.41
  A 3.18 2.88 54.7 0 1 940.53 899.67
  Q 941.60 895.24 944.95 893.21
  Q 946.89 892.04 952.59 892.04
  Q 999.07 892.04 1003.75 892.13
  C 1010.85 892.25 1014.38 898.65 1012.31 905.09
  C 1010.85 909.64 1007.55 910.57 1002.76 910.61
  Q 977.40 910.78 961.73 910.61
  A 0.51 0.50 -90.0 0 0 961.23 911.12
  L 961.23 933.65
  A 1.10 1.09 89.0 0 0 962.36 934.75
  Q 972.31 934.44 990.52 934.66
  C 1002.64 934.81 1002.29 952.84 990.21 952.79
  Q 974.16 952.71 961.63 952.86
  Z"
/>
<path fill="#8ebf3c" d="
  M 1047.61 960.84
  A 0.59 0.58 -89.0 0 0 1047.03 961.41
  Q 1046.78 971.42 1046.85 985.30
  Q 1046.87 989.96 1045.79 992.03
  C 1043.08 997.22 1034.90 997.95 1030.64 995.11
  Q 1026.49 992.34 1026.49 986.96
  Q 1026.52 941.01 1026.40 905.28
  Q 1026.38 899.11 1027.89 896.47
  Q 1030.41 892.06 1036.79 892.06
  Q 1054.48 892.05 1067.25 892.04
  C 1077.92 892.02 1087.89 894.95 1096.04 902.22
  C 1103.21 908.61 1105.75 918.03 1105.61 928.24
  C 1105.47 938.82 1101.08 947.52 1093.02 953.96
  C 1091.42 955.23 1089.38 956.07 1087.13 957.09
  A 0.54 0.53 -29.8 0 0 1086.91 957.88
  Q 1093.22 967.00 1103.39 980.62
  C 1112.17 992.37 1094.90 1003.49 1086.63 991.90
  C 1079.05 981.30 1071.53 971.63 1064.95 961.52
  A 1.49 1.49 0.0 0 0 1063.70 960.84
  L 1047.61 960.84
  Z"
/>
</g>
<g>
<path fill="#321150" d="
  M 714.93 396.57
  A 0.48 0.48 0.0 0 0 714.26 396.01
  C 712.97 396.61 711.22 397.37 709.56 396.79
  Q 706.83 395.83 707.26 392.26
  C 707.48 390.40 708.55 389.49 710.36 389.03
  Q 716.00 387.58 719.54 384.76
  C 721.94 382.85 725.56 383.87 726.11 387.22
  A 1.80 1.68 50.1 0 1 726.07 387.96
  L 715.25 428.87
  A 4.39 4.38 -75.8 0 1 710.00 432.01
  L 709.65 431.93
  A 3.96 3.96 0.0 0 1 706.57 426.99
  L 714.93 396.57
  Z"
/>
<path fill="#321150" d="
  M 748.88 390.97
  C 758.09 393.55 761.28 402.78 760.16 411.62
  Q 759.66 415.56 758.46 419.84
  Q 757.26 424.12 755.64 427.75
  C 752.01 435.88 744.49 442.11 735.28 439.53
  C 726.07 436.95 722.88 427.72 724.00 418.89
  Q 724.50 414.95 725.69 410.66
  Q 726.89 406.38 728.52 402.75
  C 732.15 394.62 739.67 388.39 748.88 390.97
  Z"
/>
<ellipse fill="#ffffff" cx="0.00" cy="0.00" transform="translate(761.02,476.42) rotate(-68.2)" rx="8.52" ry="7.46"/>
<path fill="#321150" d="
  M 418.64 911.30
  A 0.92 0.92 0.0 0 1 419.57 910.39
  L 437.89 910.45
  A 29.66 29.64 -89.8 0 1 467.42 940.22
  L 467.40 948.42
  A 29.66 29.64 -89.8 0 1 437.65 977.97
  L 419.33 977.91
  A 0.92 0.92 0.0 0 1 418.42 976.98
  L 418.64 911.30
  Z"
/>
<path fill="#321150" d="
  M 1047.01 911.30
  A 0.53 0.53 0.0 0 1 1047.54 910.77
  L 1068.73 910.88
  A 16.08 15.60 0.3 0 1 1084.73 926.57
  L 1084.73 927.35
  A 16.08 15.60 0.3 0 1 1068.57 942.86
  L 1047.38 942.75
  A 0.53 0.53 0.0 0 1 1046.85 942.22
  L 1047.01 911.30
  Z"
/>
<path fill="#321150" d="
  M 860.41 911.49
  A 0.97 0.97 0.0 0 1 861.38 910.52
  L 877.57 910.55
  A 29.94 29.62 -89.9 0 1 907.14 940.54
  L 907.12 948.08
  A 29.94 29.62 -89.9 0 1 877.45 977.97
  L 861.26 977.94
  A 0.97 0.97 0.0 0 1 860.29 976.97
  L 860.41 911.49
  Z"
/>
<path fill="#321150" d="
  M 318.73 955.91
  L 333.75 919.43
  A 0.33 0.33 0.0 0 1 334.36 919.43
  L 349.25 955.96
  A 0.33 0.33 0.0 0 1 348.94 956.42
  L 319.03 956.36
  A 0.33 0.33 0.0 0 1 318.73 955.91
  Z"
/>
<path fill="#321150" d="
  M 766.19 955.68
  L 780.44 920.10
  A 0.48 0.48 0.0 0 1 781.33 920.11
  L 795.33 955.78
  A 0.48 0.48 0.0 0 1 794.88 956.44
  L 766.63 956.34
  A 0.48 0.48 0.0 0 1 766.19 955.68
  Z"
/>
</g>
<path fill="#ffffff" d="
  M 746.93 398.59
  Q 754.77 400.90 749.94 417.32
  Q 745.11 433.74 737.27 431.43
  Q 729.43 429.13 734.26 412.71
  Q 739.09 396.29 746.93 398.59
  Z"
/>
</svg>
